HIERARCHY
ROOT Hips
{
	OFFSET 0.000000 0.000000 0.000000 
	CHANNELS 6 Xposition Yposition Zposition Zrotation Yrotation Xrotation
	JOINT LeftUpLeg
	{
		OFFSET 1.363060 -1.794630 0.839290 
		CHANNELS 3 Zrotation Yrotation Xrotation
		JOINT LeftLeg
		{
			OFFSET 2.448110 -6.726130 0.000000 
			CHANNELS 3 Zrotation Yrotation Xrotation
			JOINT LeftFoot
			{
				OFFSET 2.562200 -7.039590 0.000000 
				CHANNELS 3 Zrotation Yrotation Xrotation
				JOINT LeftToeBase
				{
					OFFSET 0.157640 -0.433110 2.322550 
					CHANNELS 3 Zrotation Yrotation Xrotation
					End Site
					{
						OFFSET 0.000000 0.000000 0.000000 
					}
				}
			}
		}
	}
	JOINT RightUpLeg
	{
		OFFSET -1.305520 -1.794630 0.839290 
		CHANNELS 3 Zrotation Yrotation Xrotation
		JOINT RightLeg
		{
			OFFSET -2.542530 -6.985550 0.000000 
			CHANNELS 3 Zrotation Yrotation Xrotation
			JOINT RightFoot
			{
				OFFSET -2.568260 -7.056230 0.000000 
				CHANNELS 3 Zrotation Yrotation Xrotation
				JOINT RightToeBase
				{
					OFFSET -0.164730 -0.452590 2.363150 
					CHANNELS 3 Zrotation Yrotation Xrotation
					End Site
					{
						OFFSET 0.000000 0.000000 0.000000 
					}
				}
			}
		}
	}
	JOINT Spine
	{
		OFFSET 0.028270 2.035590 -0.193380 
		CHANNELS 3 Zrotation Yrotation Xrotation
		JOINT Spine1
		{
			OFFSET 0.056720 2.048850 -0.042750 
			CHANNELS 3 Zrotation Yrotation Xrotation
			JOINT Neck1
			{
				OFFSET -0.054170 1.746240 0.172020 
				CHANNELS 3 Zrotation Yrotation Xrotation
				JOINT Head
				{
					OFFSET 0.104070 1.761360 -0.123970 
					CHANNELS 3 Zrotation Yrotation Xrotation
					End Site
					{
						OFFSET 0.000000 0.000000 0.000000 
					}
				}
			}
			JOINT LeftArm
			{
				OFFSET 3.362410 1.200890 -0.311210 
				CHANNELS 3 Zrotation Yrotation Xrotation
				JOINT LeftForeArm
				{
					OFFSET 4.983000 -0.000000 -0.000000 
					CHANNELS 3 Zrotation Yrotation Xrotation
					JOINT LeftHand
					{
						OFFSET 3.483560 -0.000000 -0.000000 
						CHANNELS 3 Zrotation Yrotation Xrotation
						JOINT LeftHandIndex1
						{
							OFFSET 0.715260 -0.000000 -0.000000 
							CHANNELS 3 Zrotation Yrotation Xrotation
							End Site
							{
								OFFSET 0.000000 0.000000 0.000000 
							}
						}
					}
				}
			}
			JOINT RightArm
			{
				OFFSET -3.136600 1.374050 -0.404650 
				CHANNELS 3 Zrotation Yrotation Xrotation
				JOINT RightForeArm
				{
					OFFSET -5.241900 -0.000000 -0.000000 
					CHANNELS 3 Zrotation Yrotation Xrotation
					JOINT RightHand
					{
						OFFSET -3.444170 -0.000000 -0.000000 
						CHANNELS 3 Zrotation Yrotation Xrotation
						JOINT RightHandIndex1
						{
							OFFSET -0.622530 -0.000000 -0.000000 
							CHANNELS 3 Zrotation Yrotation Xrotation
							End Site
							{
								OFFSET 0.000000 0.000000 0.000000 
							}
						}
					}
				}
			}
		}
	}
}
MOTION
Frames: 10
Frame Time: 0.041667
-4.281901 18.025447 -8.212388 0.656489 8.908865 14.073578 -4.461188 -9.568333 -26.019431 6.485136 14.104808 46.970001 -2.261874 9.072798 4.433992 0.171200 -2.665800 -7.349700 20.232162 2.494450 -29.444347 -2.353686 -9.921750 32.003713 8.177650 -22.170596 -7.161622 -0.007800 -0.570100 1.566600 2.171242 4.009068 3.169041 0.588556 2.124944 -2.129269 -8.094233 25.567182 23.782263 -1.408200 11.101000 12.304500 -83.839354 1.699117 14.660612 27.908108 -36.365503 -9.669701 -0.049515 -0.610702 -16.414027 -7.125000 0.000000 0.000000 79.265993 -10.723445 21.588718 -31.809169 39.846650 -13.320988 0.670095 0.251965 -14.935910 7.125000 0.000000 0.000000 
-4.248524 18.021111 -8.290234 0.589407 9.736702 14.018549 -4.164557 -8.978793 -25.442408 6.263052 13.951986 46.187500 -2.279539 9.159123 4.820946 0.167500 -2.636300 -7.267900 20.233423 2.376136 -29.644407 -2.351959 -9.933083 31.937506 8.430600 -22.772800 -7.274414 -0.007700 -0.566800 1.557400 2.328105 3.936471 3.210550 0.738053 2.090595 -2.093113 -8.020095 25.348066 23.946149 -1.377500 10.980600 12.380800 -83.898225 1.753338 14.728973 27.823944 -36.266299 -9.603378 -0.031293 -0.595351 -16.217241 -7.125000 0.000000 0.000000 79.223565 -10.697978 21.254222 -31.837819 39.872388 -13.344669 0.668013 0.240861 -15.015405 7.125000 0.000000 0.000000 
-4.221198 18.013448 -8.379574 0.425706 10.516984 14.031545 -3.776631 -8.392925 -24.974951 6.013664 13.772452 45.270893 -2.320841 9.339178 5.371779 0.217400 -3.001800 -8.283800 20.326620 2.401136 -29.979485 -2.365380 -9.968207 31.997900 8.571119 -23.131883 -7.558103 -0.025400 -1.029300 2.829400 2.555856 3.906463 3.047740 0.899031 2.074622 -2.230967 -7.849403 25.113274 24.072815 -1.317300 10.867200 12.387500 -83.967587 1.840492 14.685290 27.636075 -36.096827 -9.494637 -0.050181 -0.611371 -16.086764 -7.125000 0.000000 0.000000 79.184915 -10.758213 20.906674 -31.871046 39.906435 -13.373201 0.666057 0.234550 -15.108843 7.125000 0.000000 0.000000 
-4.191148 18.006591 -8.480410 0.324834 11.882039 14.015411 -3.336726 -8.332105 -24.492804 5.771633 13.568916 44.367226 -2.324466 9.394359 5.900710 0.283900 -3.426900 -9.469500 20.476807 1.990235 -30.600528 -2.407232 -10.074982 32.247991 8.681176 -23.445494 -8.067701 -0.061200 -1.596200 4.390900 2.761754 3.641025 2.778786 0.968771 1.935894 -2.523205 -7.829313 24.861650 24.071542 -1.361800 10.773900 12.330300 -84.036145 1.936503 14.661436 27.475128 -35.936207 -9.386790 -0.039687 -0.601032 -15.835268 -7.125000 0.000000 0.000000 79.190063 -10.985589 20.514472 -31.977611 40.001882 -13.454995 0.662610 0.240431 -15.134215 7.125000 0.000000 0.000000 
-4.130647 18.009616 -8.557449 0.478484 13.796967 13.481941 -3.096266 -8.881339 -23.249534 5.506261 13.297165 43.388125 -2.346873 9.469464 6.348832 0.359000 -3.849100 -10.652500 20.356491 0.879975 -30.873707 -2.464576 -10.231092 32.528885 8.913548 -24.027770 -8.466500 -0.064100 -1.633900 4.495000 2.692516 3.117150 3.045767 0.817188 1.664229 -2.647229 -7.894258 24.558633 23.985744 -1.448300 10.649500 12.287100 -83.996573 1.847529 14.660243 27.233719 -35.702680 -9.234041 -0.037171 -0.594777 -15.410899 -7.125000 0.000000 0.000000 79.322350 -11.116773 20.061954 -32.061108 40.068939 -13.515718 0.664198 0.243795 -15.146122 7.125000 0.000000 0.000000 
-4.077103 18.001146 -8.647193 0.248803 14.725953 13.451792 -2.685326 -8.717574 -22.729302 5.236470 13.061340 42.374277 -2.353454 9.542548 6.848982 0.478400 -4.435600 -12.305600 20.455287 0.704390 -31.402778 -2.554231 -10.359878 32.845061 9.091861 -24.489779 -8.545731 -0.053500 -1.492400 4.104800 2.809414 3.026855 3.099842 0.739069 1.615977 -2.545843 -7.938483 24.341319 24.028620 -1.484300 10.539600 12.321300 -84.041947 1.721209 14.556646 26.971207 -35.438936 -9.067318 -0.038200 -0.591563 -14.936871 -7.125000 0.000000 0.000000 79.220947 -10.829609 19.756354 -31.691938 39.772772 -13.251951 0.675654 0.235472 -15.235074 7.125000 0.000000 0.000000 
-4.023660 17.987331 -8.737139 -0.067578 15.635632 13.454843 -2.186389 -8.718097 -22.183813 4.941433 12.796595 41.295712 -2.279257 9.360251 7.231487 0.608400 -4.992500 -13.887300 20.649672 0.486933 -32.016900 -2.637428 -10.490245 33.186224 9.167931 -24.718938 -8.670949 -0.060000 -1.580500 4.347600 3.143430 2.909979 3.157920 0.798743 1.564077 -2.371340 -8.069637 24.220457 24.126522 -1.544400 10.468400 12.401100 -84.283787 1.656753 14.499228 26.856472 -35.329326 -9.003946 -0.056820 -0.606810 -14.944058 -7.125000 0.000000 0.000000 78.869091 -10.336662 19.624523 -31.082090 39.279054 -12.820553 0.693971 0.231064 -15.350096 7.125000 0.000000 0.000000 
-3.970822 17.970290 -8.832429 -0.151215 16.544243 13.483063 -1.912361 -8.849218 -21.638271 4.643405 12.509006 40.234885 -2.115450 8.926674 7.759927 0.808600 -5.738500 -16.027700 20.599795 0.226713 -32.637990 -2.724898 -10.642433 33.552825 9.232737 -24.912073 -8.782292 -0.073300 -1.747200 4.807500 3.298826 2.859642 3.146266 0.880004 1.537869 -2.328212 -8.027945 23.931385 24.199218 -1.559400 10.334800 12.408000 -84.461886 1.601685 14.812753 26.798312 -35.271598 -8.973209 -0.067611 -0.612370 -15.253733 -7.125000 0.000000 0.000000 78.657401 -10.105860 19.301543 -30.704820 38.972162 -12.558174 0.710948 0.224484 -15.494632 7.125000 0.000000 0.000000 
-3.918084 17.956475 -8.932156 -0.295205 17.535849 13.500840 -1.557634 -9.152553 -21.100980 4.316501 12.184511 39.062969 -1.867575 8.288949 8.555684 1.068400 -6.570900 -18.450300 20.630663 -0.090429 -33.317359 -2.825070 -10.809833 33.975580 9.288502 -25.093669 -8.919526 -0.079600 -1.819700 5.007800 3.354387 2.805480 2.998012 0.819423 1.500578 -2.432903 -7.889725 23.601811 24.329580 -1.546600 10.191900 12.423200 -84.592542 1.652247 15.180794 26.816220 -35.281392 -8.979694 -0.060089 -0.599699 -15.722752 -7.125000 0.000000 0.000000 78.606193 -10.080159 18.881995 -30.477640 38.788903 -12.403122 0.713212 0.216827 -15.544189 7.125000 0.000000 0.000000 
-3.865045 17.940039 -9.034403 -0.576556 18.452752 13.489972 -1.094045 -9.539465 -20.515412 3.950850 11.818160 37.773960 -1.489267 7.300262 9.485515 1.342500 -7.335900 -20.714500 20.796428 -0.351111 -34.004159 -2.928608 -10.985492 34.481032 9.250898 -25.078533 -9.262954 -0.110600 -2.144100 5.904000 3.542425 2.746638 2.814846 0.753779 1.463866 -2.572893 -7.914943 23.346385 24.382144 -1.592100 10.077100 12.419800 -84.769089 1.779992 15.223513 26.711458 -35.188197 -8.925294 -0.071508 -0.615412 -15.707809 -7.125000 0.000000 0.000000 78.392047 -9.996469 18.614343 -30.198798 38.561907 -12.212687 0.705871 0.232635 -15.566423 7.125000 0.000000 0.000000 
